<svg xmlns="http://www.w3.org/2000/svg" width="1060" height="100" stroke-linejoin="round"><style>.s0{fill:rgb(48,111,197);}.s1{fill:white;}.s2{fill:rgb(246,246,246);}.s3{fill:rgb(38,86,151);}.s4{fill:rgb(217,123,22);}.s5{fill:rgb(244,244,244);}.s6{fill:black;}</style><path d="M148 0H8C4 0 0 4 0 8v80c0 8 4 12 12 12h136c8 0 12-4 12-12V12c0-8-4-12-12-12z" fill="#306FC5"/><path d="M13.5 36.6l-3.1-7.5-3.1 7.5zm68.3-3c-.6.4-1.4.4-2.3.4H74v-4.2h5.6c.8 0 1.6 0 2.2.3.6.3.9.9.9 1.7 0 .8-.3 1.5-.9 1.8zm39.2 3l-3.1-7.5-3.1 7.5zm-73.1 8.2h-4.7V30l-6.5 14.8h-4L26.1 30v14.8h-9.2l-1.7-4.2H5.7L4 44.8H-.9l8.1-18.9h6.7l7.7 17.9V25.9H29l5.9 12.8 5.4-12.8h7.6v18.9zm18.5 0H51.3V25.9h15.1v3.9H55.8v3.4h10.3v3.9H55.8v3.8h10.6zM87.7 31c0 3-2 4.5-3.2 5 1 .4 1.9 1.1 2.3 1.6.6.9.7 1.8.7 3.5v3.7h-4.6v-2.4c0-1.1.1-2.8-.7-3.7-.7-.6-1.7-.8-3.3-.8H74v6.9h-4.5V25.9h10.4c2.3 0 4.1 0 5.5.9 1.4.8 2.3 2 2.3 4.2zM95 44.8h-4.7V25.9H95zm53.5 0h-6.4l-8.6-14.2v14.2h-9.2l-1.7-4.2h-9.4l-1.7 4.2h-5.3c-2.2 0-5-.5-6.6-2.1-1.6-1.6-2.4-3.8-2.4-7.2 0-2.8.5-5.4 2.4-7.4 1.5-1.5 3.8-2.2 6.9-2.2h4.4v4h-4.3c-1.7 0-2.6.3-3.5 1.1-.8.8-1.3 2.3-1.3 4.3 0 2.1.4 3.5 1.2 4.5.7.7 2 1 3.2 1h2l6.4-14.9h6.8l7.7 17.9V25.9h6.8l8 13.1V25.9h4.6zM-1 48.5h7.7l1.8-4.2h3.9l1.7 4.2h15.2v-3.2l1.4 3.2h7.9l1.4-3.2v3.2h37.8v-6.9h.7c.5 0 .7.1.7.9v6h19.5v-1.6c1.6.9 4.1 1.6 7.3 1.6h8.2l1.8-4.2h3.9l1.7 4.2h15.9v-4l2.4 4h12.7V22.1H140v3.1l-1.8-3.1h-12.9v3.1l-1.6-3.1h-17.4c-2.9 0-5.5.4-7.6 1.5v-1.5h-12v1.5c-1.3-1.1-3.1-1.5-5.1-1.5h-44l-2.9 6.8-3-6.8H17.8v3.1l-1.5-3.1H4.5L-1 34.7v13.8zm161 14h-8.2c-.8 0-1.4 0-1.8.3-.5.3-.7.8-.7 1.4 0 .7.4 1.2 1 1.4.5.1 1 .2 1.7.2l2.5.1c2.5 0 4.1.5 5.1 1.5.2.1.3.3.4.5zm0 12.5c-1.1 1.6-3.2 2.4-6.1 2.4h-8.7v-4.1h8.7c.8 0 1.4-.1 1.8-.5.3-.2.5-.7.5-1.2s-.2-1-.5-1.2c-.4-.3-.8-.5-1.6-.5-4.3-.1-9.6.2-9.6-5.8 0-2.8 1.8-5.7 6.5-5.7h9v-3.7h-8.3c-2.6 0-4.4.6-5.7 1.5v-1.5h-12.4c-2 0-4.3.5-5.4 1.5v-1.5h-22.1v1.5c-1.8-1.3-4.8-1.5-6.1-1.5H85.4v1.5c-1.4-1.3-4.5-1.5-6.4-1.5H62.6l-3.7 4-3.5-4H31v26.4h23.9l3.9-4.1 3.6 4.1h14.8v-6.2h1.4c2 0 4.3-.1 6.3-.9v7.1h12.2v-6.9h.6c.7 0 .8 0 .8.8v6.1h37c2.4 0 4.8-.6 6.2-1.7v1.7h11.7c2.4 0 4.8-.3 6.6-1.2zm-18-7.6c.9.9 1.3 2.1 1.3 4 0 4.1-2.5 6-7.1 6h-8.8v-4.1h8.8c.8 0 1.5-.1 1.8-.5.3-.2.6-.7.6-1.2s-.3-1-.6-1.2c-.3-.3-.8-.5-1.6-.5-4.2-.1-9.5.2-9.5-5.8 0-2.8 1.7-5.7 6.4-5.7h9.1v4.1h-8.3c-.8 0-1.3 0-1.8.3s-.7.8-.7 1.4c0 .7.4 1.2 1 1.4.5.2 1 .2 1.8.2l2.4.1c2.5 0 4.2.4 5.2 1.5zm-40.9-1.2c-.6.4-1.3.4-2.2.4h-5.5v-4.2H99c.8 0 1.6 0 2.1.3.6.3 1 .9 1 1.7 0 .8-.4 1.5-1 1.8zm2.8 2.4c1 .3 1.8 1 2.2 1.6.6.9.7 1.8.7 3.4v3.8h-4.5V75c0-1.1.1-2.8-.7-3.7-.7-.7-1.7-.8-3.4-.8h-4.8v6.9h-4.6v-19h10.5c2.3 0 4 .1 5.4.9 1.5.9 2.4 2.1 2.4 4.2 0 3.1-2 4.6-3.2 5.1zm5.7-10.2h15.1v4h-10.6v3.4h10.3v3.9h-10.3v3.7h10.6v4h-15.1zM79 67.2h-5.8v-4.8h5.9c1.6 0 2.8.6 2.8 2.3 0 1.6-1.1 2.5-2.9 2.5zm-10.3 8.5l-7-7.8 7-7.4zm-18-2.3H39.6v-3.7h9.9v-3.9h-9.9v-3.4h11.3l5 5.5zm36-8.7c0 5.2-3.9 6.3-7.9 6.3h-5.6v6.4h-8.8l-5.6-6.3-5.8 6.3H35.1v-19h18.2l5.6 6.2 5.7-6.2h14.5c3.6 0 7.6 1 7.6 6.3z" fill="#fff"/><path fill="#F6F6F6" d="M180 9h160v80H180z"/><path d="M328 0H188c-4 0-8 4-8 8v12h160v-8c0-8-4-12-12-12z" fill="#265697"/><path d="M180 80v8c0 8 4 12 12 12h136c8 0 12-4 12-12v-8z" fill="#D97B16"/><path d="M291.7 29.8c-2.3-.9-5.8-1.8-10.2-1.8-11.2 0-19 5.8-19.1 14-.1 6.1 5.6 9.5 9.9 11.5 4.4 2.1 5.9 3.4 5.9 5.3-.1 2.8-3.5 4.1-6.8 4.1-4.5 0-6.9-.6-10.7-2.2l-1.4-.7-1.6 9.5c2.6 1.2 7.5 2.2 12.6 2.3 11.9 0 19.6-5.7 19.7-14.5.1-4.8-3-8.5-9.5-11.5-3.9-2-6.4-3.3-6.3-5.3 0-1.8 2-3.6 6.4-3.6 3.7-.1 6.4.7 8.5 1.6l1 .5M320.7 28.8h-8.8c-2.7 0-4.7.7-5.9 3.5l-16.8 38.9h11.9s1.9-5.2 2.4-6.4H318c.3 1.5 1.3 6.4 1.3 6.4h10.5zm-14 27.3c1-2.4 4.5-11.8 4.5-11.8 0 .1 1-2.5 1.5-4.1l.8 3.7s2.2 10.1 2.6 12.2zM239.3 71.2l7.1-42.5h11.3l-7.1 42.5zM229.8 28.8l-11.1 28.9-1.2-5.9c-2-6.8-8.4-14.1-15.6-17.8L212 71.1h12l17.8-42.3" fill="#265697"/><path d="M208.4 28.7h-18.2l-.2.9c14.2 3.5 23.6 12 27.5 22.2l-3.9-19.5c-.7-2.7-2.7-3.5-5.2-3.6" fill="#D97B16"/><path d="M508.1 0h-140c-4 0-8 4-8 8v80c0 8 4 12 12 12h136c8 0 12-4 12-12V12c0-8-4-12-12-12z" fill="#F4F4F4"/><path d="M409.6 100h98.5c8 0 12-4 12-12V40.4s-23.9 42-110.5 59.6z" fill="#D97B16"/><path d="M412.1 48.9h1.4l4.5 6.7v-6.7h1.1V57h-1.4l-4.5-6.6V57h-1.1zm9.1 0h5.2v1h-4.1v2.5h3.8v1h-3.8V56h4.3v1h-5.4zm8.6 1h-2.6v-1h6.3v1h-2.6V57h-1.1zm3.9-1h1.1l1.8 6.5 1.9-6.5h1.3l1.9 6.5 1.8-6.5h1.1l-2.3 8.1h-1.2l-1.9-6.6h-.1l-1.9 6.6H436zm15.7 8.3c-.6 0-1.2-.1-1.7-.3-.5-.2-1-.5-1.3-.9-.4-.4-.7-.8-.9-1.4-.2-.5-.3-1-.3-1.6 0-.6.1-1.2.3-1.7.2-.5.5-1 .9-1.4.3-.3.8-.6 1.3-.9.5-.2 1.1-.3 1.7-.3.6 0 1.2.1 1.7.3.5.3.9.6 1.3.9.4.4.7.9.9 1.4.2.5.3 1.1.3 1.7 0 .6-.1 1.1-.3 1.6-.2.6-.5 1-.9 1.4-.4.4-.8.7-1.3.9-.5.2-1.1.3-1.7.3zm0-1c.4 0 .9-.1 1.2-.3.4-.1.7-.4 1-.7.3-.3.5-.6.6-1 .2-.4.2-.8.2-1.2 0-.5 0-.9-.2-1.3-.1-.4-.3-.7-.6-1-.3-.3-.6-.5-1-.7-.3-.2-.8-.3-1.2-.3-.5 0-.9.1-1.3.3-.3.2-.7.4-.9.7-.3.3-.5.6-.6 1-.2.4-.3.8-.3 1.3 0 .4.1.8.3 1.2.1.4.3.7.6 1 .2.3.6.6.9.7.4.2.8.3 1.3.3 0 0-.5 0 0 0zm5.8-7.3h2.8c.5 0 1 .1 1.3.2.3.2.6.4.8.6.2.2.3.4.4.7.1.3.1.5.1.8 0 .2 0 .5-.1.7-.1.3-.3.5-.4.7-.2.2-.4.3-.7.5-.2.1-.5.2-.8.2l2.3 3.7h-1.4l-2-3.6h-1.2V57h-1.1zm1.1 3.6h1.4c.2 0 .4 0 .6-.1.2 0 .4-.1.6-.2.2 0 .3-.2.4-.4.1-.1.1-.3.1-.6s0-.5-.1-.7c-.1-.2-.2-.3-.4-.4-.2-.1-.4-.1-.6-.2h-2zm5.8-3.6h1.1v3.5h.1l3.6-3.5h1.5l-3.9 3.8 4.2 4.3h-1.6l-3.8-4h-.1v4h-1.1zM374.2 23.9h7.5c1.3 0 2.5.2 3.7.6 1.1.4 2.2.9 3.1 1.7.9.8 1.6 1.8 2.1 3 .6 1.2.8 2.6.8 4.2 0 1.7-.3 3.1-.9 4.3-.6 1.2-1.4 2.2-2.4 3-1 .7-2.1 1.3-3.3 1.7-1.2.4-2.3.6-3.5.6h-7.1zm5.9 16c1.1 0 2.1-.1 3-.3 1-.3 1.8-.7 2.5-1.2s1.3-1.2 1.7-2c.4-.8.6-1.8.6-3 0-1.1-.2-2.1-.6-2.9-.3-.9-.8-1.5-1.5-2-.6-.6-1.4-.9-2.2-1.2-.9-.2-1.9-.3-2.9-.3h-3.1v12.9zm14.5-16h3.4V43h-3.4zm17 4.1c-.4-.5-.9-.9-1.5-1.2-.6-.2-1.2-.3-1.9-.3-.4 0-.8 0-1.1.1-.4.1-.7.2-1 .4-.3.2-.6.5-.8.8-.1.3-.2.7-.2 1.1 0 .7.2 1.2.7 1.5.4.4 1 .7 1.6.9.7.3 1.4.5 2.2.7.8.3 1.5.6 2.2 1 .7.4 1.2 1 1.7 1.7.4.6.6 1.5.6 2.7 0 1-.1 1.9-.5 2.7-.4.7-.9 1.4-1.5 1.9-.7.5-1.4.9-2.3 1.1-.8.3-1.7.4-2.6.4-1.2 0-2.4-.2-3.5-.6-1.1-.4-2-1.1-2.8-2l2.6-2.5c.4.6.9 1.1 1.6 1.5.7.3 1.4.5 2.1.5.4 0 .8 0 1.2-.2.4-.1.8-.2 1.1-.4.3-.3.6-.5.8-.9.2-.3.3-.7.3-1.1 0-.7-.2-1.3-.7-1.6-.4-.4-1-.7-1.7-1-.6-.3-1.4-.5-2.2-.7-.7-.3-1.5-.6-2.1-1-.7-.4-1.3-.9-1.7-1.6-.5-.7-.7-1.6-.7-2.7 0-1 .2-1.9.6-2.6.4-.7 1-1.3 1.6-1.8.7-.5 1.4-.8 2.3-1.1.8-.2 1.7-.3 2.6-.3 1 0 1.9.2 2.9.5.9.3 1.8.8 2.5 1.5zm19.2.4c-.7-.8-1.4-1.3-2-1.5-.7-.3-1.4-.4-2-.4-1 0-1.9.2-2.7.5-.8.4-1.5.8-2.1 1.5-.5.6-1 1.3-1.3 2.1-.3.9-.5 1.8-.5 2.7 0 1 .2 2 .5 2.8.3.9.8 1.7 1.3 2.3.6.6 1.3 1.1 2.1 1.5.8.3 1.7.5 2.7.5.8 0 1.5-.2 2.2-.5.8-.4 1.4-1 2.1-1.8l2.8 2c-.9 1.2-1.9 2-3.2 2.6-1.2.5-2.5.8-3.9.8-1.5 0-2.9-.3-4.1-.7-1.2-.5-2.3-1.2-3.2-2.1-.9-.8-1.6-1.9-2.1-3.1-.5-1.2-.7-2.6-.7-4.1 0-1.5.2-2.9.7-4.1.5-1.3 1.2-2.4 2.1-3.2.9-.9 2-1.6 3.2-2.1 1.2-.5 2.6-.7 4.1-.7 1.3 0 2.5.2 3.6.7 1.1.4 2.1 1.2 3.1 2.3zm25.7-4.5h3.9l5.2 14.4 5.4-14.4h3.6L466.9 43H464zm20.2 0h12.6V27h-9.2v4.7h8.8v3h-8.8v5.2h9.7V43h-13.1zm16.5 0h6.6c.9 0 1.8.1 2.7.2.8.2 1.6.5 2.3.9.6.4 1.2 1 1.6 1.7.3.7.5 1.6.5 2.7 0 1.4-.3 2.5-1.1 3.4-.8 1-1.9 1.6-3.3 1.7l5.1 8.5h-4.1l-4.4-8.1h-2.5V43h-3.4zm6 8.1c.5 0 1 0 1.5-.1.5 0 .9-.1 1.3-.3.4-.2.8-.4 1-.8.3-.3.4-.8.4-1.5 0-.5-.1-1-.4-1.3-.2-.4-.5-.6-.9-.8-.4-.2-.8-.3-1.2-.3-.5-.1-.9-.1-1.4-.1h-2.9V32z"/><path d="M446.1 23.4c5.6 0 10.1 4.5 10.1 10.1 0 5.5-4.5 10-10.1 10-5.5 0-10-4.5-10-10 0-5.6 4.5-10.1 10-10.1z" fill="#D97B16"/><path d="M688.1 0h-140c-4 0-8 4-8 8v80c0 8 4 12 12 12h136c8 0 12-4 12-12V12c0-8-4-12-12-12z" fill="#265697"/><path d="M689.6 50.5c0 23.2-18.6 42.1-41.6 42.1s-41.6-18.8-41.6-42.1C606.3 27.3 625 8.4 648 8.4s41.6 18.8 41.6 42.1z" fill="#DFAC16"/><path d="M591.9 8.4c-22.9.2-41.4 19-41.4 42.1 0 23.2 18.7 42.1 41.6 42.1 10.8 0 20.7-4.2 28.1-11h-.1.1c1.5-1.4 2.9-2.9 4.2-4.5h-8.5c-1.2-1.4-2.2-2.8-3.1-4.3h14.7c.9-1.5 1.7-3 2.4-4.5h-19.6c-.6-1.5-1.2-3-1.7-4.5h23c1.4-4.1 2.2-8.6 2.2-13.3 0-3.1-.4-6.1-1-9h-25.4c.3-1.5.7-3 1.1-4.4h23.1c-.5-1.6-1.1-3.1-1.8-4.5h-19.5c.7-1.6 1.5-3 2.4-4.5h14.7c-1-1.5-2.1-3-3.2-4.5H616c1.2-1.5 2.6-2.9 4.2-4.2-7.4-6.8-17.3-11-28.1-11h-.2z" fill="#BF3126"/><path d="M607.1 61.2l.6-3.8c-.3 0-.8.1-1.2.1-1.5 0-1.7-.8-1.6-1.4l1.3-7.8h2.3l.6-4.2h-2.2l.4-2.6h-4.4c-.1.1-2.6 14.7-2.6 16.5 0 2.6 1.4 3.8 3.5 3.8 1.6 0 2.9-.5 3.3-.6zM608.5 54c0 6.3 4.1 7.8 7.7 7.8 3.2 0 4.7-.7 4.7-.7l.7-4.4s-2.4 1.1-4.7 1.1c-4.7 0-3.9-3.6-3.9-3.6h9s.6-2.9.6-4c0-3-1.5-6.6-6.3-6.6-4.5 0-7.8 4.9-7.8 10.4zm7.8-6.4c2.5 0 2 2.9 2 3.1h-4.9c0-.3.5-3.1 2.9-3.1zM644.4 61.2l.7-4.9s-2.1 1.1-3.6 1.1c-3.2 0-4.4-2.4-4.4-5 0-5.3 2.7-8.2 5.7-8.2 2.2 0 4.1 1.3 4.1 1.3l.7-4.8s-2.7-1.1-5-1.1c-5.1 0-10.1 4.5-10.1 12.9 0 5.6 2.7 9.3 8 9.3 1.5 0 3.9-.6 3.9-.6zM582.7 43.7c-3 0-5.3 1-5.3 1l-.7 3.8s1.9-.8 4.9-.8c1.6 0 2.8.2 2.8 1.6 0 .8-.1 1.1-.1 1.1s-1.3-.1-1.9-.1c-3.9 0-7.9 1.7-7.9 6.6 0 4 2.6 4.9 4.3 4.9 3.1 0 4.4-2.1 4.5-2.1l-.1 1.7h3.9l1.7-12.3c0-5.2-4.5-5.4-6.1-5.4zm1 10c.1.8-.5 4.3-3.2 4.3-1.3 0-1.7-1-1.7-1.7 0-1.2.7-2.7 3.9-2.7.8 0 .9.1 1 .1zM593 61.7c1 0 6.7.2 6.7-5.7 0-5.6-5.3-4.5-5.3-6.7 0-1.1.9-1.5 2.4-1.5.7 0 3.1.2 3.1.2l.5-3.9s-1.5-.4-4.1-.4c-3.3 0-6.6 1.3-6.6 5.9 0 5.1 5.6 4.6 5.6 6.7 0 1.5-1.6 1.6-2.8 1.6-2 0-3.9-.7-3.9-.7l-.6 3.9c.1.1 1.2.6 5 .6zM681.1 40.1l-1 6s-1.7-2.3-4.3-2.3c-4 0-7.4 4.9-7.4 10.6 0 3.7 1.8 7.3 5.5 7.3 2.6 0 4.1-1.9 4.1-1.9l-.2 1.6h4.3l3.4-21.3zM679 51.8c0 2.4-1.2 5.6-3.6 5.6-1.5 0-2.3-1.4-2.3-3.5 0-3.5 1.5-5.8 3.5-5.8 1.6 0 2.4 1.1 2.4 3.7zM558.7 61.4l2.7-16 .4 16h3.1l5.7-16-2.5 16h4.5l3.5-21.3h-7l-4.4 13.1-.2-13.1H558l-3.5 21.3zM627 61.5c1.3-7.4 1.6-13.5 4.6-12.4.6-2.8 1.1-3.9 1.7-5.2h-.9c-2 0-3.4 2.7-3.4 2.7l.4-2.5h-4.2l-2.7 17.4zM654.6 43.7c-3.1 0-5.4 1-5.4 1l-.6 3.8s1.9-.8 4.8-.8c1.6 0 2.9.2 2.9 1.6 0 .8-.2 1.1-.2 1.1s-1.3-.1-1.9-.1c-3.8 0-7.9 1.7-7.9 6.6 0 4 2.7 4.9 4.3 4.9 3.1 0 4.5-2.1 4.6-2.1l-.2 1.7h3.9l1.8-12.3c0-5.2-4.6-5.4-6.1-5.4zm.9 10c.1.8-.4 4.3-3.1 4.3-1.4 0-1.7-1-1.7-1.7 0-1.2.6-2.7 3.9-2.7.7 0 .8.1.9.1zM664.2 61.5c1.3-7.4 1.6-13.5 4.6-12.4.6-2.8 1.1-3.9 1.7-5.2h-.9c-2 0-3.4 2.7-3.4 2.7l.4-2.5h-4.2l-2.7 17.4z" fill="#fff"/><path d="M868 0H728.1c-4 0-8 4-8 8v80c0 8 4 12 12 12H868c8 0 12-4 12-12V12c0-8-4-12-12-12z" fill="#F4F4F4"/><path d="M824.9 51.8H832.6l.1.1h.4l.1.1h.1c.1 0 .1 0 .1.1h.2l.1.1h.1l.1.1c.1 0 .1 0 .1.1.1 0 .1 0 .2.1l.1.1s.1 0 .1.1c0 0 .1 0 .1.1.1 0 .1.1.1.1l.2.2s0 .1.1.1c0 .1.1.1.1.2s.1.2.1.2c.1.1.1.2.1.3.1.1.1.3.2.4v1.5c-.1.2-.1.3-.2.5 0 0 0 .1-.1.2 0 .1-.1.2-.1.3 0 0-.1.1-.1.2-.1 0-.1.1-.1.1l-.2.2-.1.1-.1.1-.1.1c-.1 0-.1.1-.1.1-.1 0-.1.1-.2.1l-.1.1h-.1c0 .1-.1.1-.1.1-.1 0-.1 0-.1.1h-.2l-.1.1h-.1-.1c-.1 0-.1.1-.1.1h-.1-.1-.1-.1-.2c-.1 0-.1 0-.2.1h-7.3zm9.6-7.4c.1.2.1.4.1.7 0 .2 0 .5-.1.7 0 .1-.1.3-.1.4 0 .1-.1.2-.1.3-.1 0-.1.1-.1.2-.1 0-.1.1-.2.2 0 0 0 .1-.1.1 0 .1-.1.1-.1.2 0 0-.1 0-.1.1-.1 0-.1 0-.1.1-.1 0-.1 0-.2.1l-.1.1h-.1c0 .1-.1.1-.1.1-.1 0-.1.1-.1.1h-.2s0 .1-.1.1h-.1l-.1.1H832.2l-.1.1h-.1-.4-.1-6.6v-6H832.1c.1 0 .1 0 .1.1H832.5s.1 0 .1.1h.2c.1.1.1.1.2.1l.1.1h.1c0 .1.1.1.1.1.1 0 .1.1.1.1.1 0 .1.1.2.1 0 0 0 .1.1.1l.1.1c0 .1.1.1.1.2.1 0 .1.1.1.1l.2.2c0 .1 0 .1.1.2 0 .1.1.2.1.3 0 .1.1.3.1.4zm14.9-31.3v63.1c0 .3-.1.7-.1 1-.1.2-.1.4-.1.6-.1.2-.1.3-.2.5 0 .1 0 .3-.1.4 0 .1-.1.3-.1.4 0 .1-.1.2-.1.3-.1.1-.1.2-.1.3-.1.1-.1.2-.2.3 0 .1 0 .2-.1.3 0 .1-.1.2-.1.3 0 0-.1.1-.1.2-.1.1-.1.1-.1.2-.1.1-.1.2-.2.2 0 .1 0 .2-.1.2 0 .1-.1.2-.1.2 0 .1-.1.2-.1.2-.1.1-.1.2-.1.2l-.2.2s0 .1-.1.2l-.1.1c0 .1-.1.1-.1.2-.1 0-.1.1-.1.1l-.2.2s0 .1-.1.1c0 .1-.1.1-.1.2l-.1.1-.1.1-.2.2-.1.1-.1.1c0 .1-.1.1-.1.1l-.1.1-.2.2-.1.1s-.1 0-.1.1c0 0-.1 0-.1.1-.1 0-.1 0-.1.1-.1 0-.1 0-.2.1l-.1.1s-.1 0-.1.1c0 0-.1 0-.1.1h-.1c-.1.1-.1.1-.2.1 0 .1 0 .1-.1.1l-.1.1-.1.1c-.1 0-.1 0-.1.1h-.2c0 .1 0 .1-.1.1l-.1.1-.1.1h-.1c-.1 0-.1.1-.2.1l-.1.1h-.1l-.1.1h-.1c-.1.1-.1.1-.2.1l-.1.1h-.1l-.1.1h-.1c-.1 0-.1.1-.2.1h-.1l-.1.1h-.1c-.1 0-.1 0-.1.1h-.2-.1c0 .1-.1.1-.1.1h-.1l-.1.1H840.5c0 .1-.1.1-.1.1h-.2l-.2.1h-.2s-.1 0-.1.1h-.4s-.1 0-.1.1h-.5-.1l-.1.1H838.2h-.1-.1-.4-18.8V62.2H839.4l.2-.1h.4l.2-.1H840.5c.1 0 .1 0 .1-.1h.4c0-.1.1-.1.1-.1h.1l.2-.1h.2l.1-.1h.1c.1 0 .1-.1.2-.1h.1l.1-.1h.1c.1 0 .1-.1.1-.1h.2c0-.1 0-.1.1-.1 0 0 .1 0 .1-.1h.1l.1-.1c.1 0 .1 0 .2-.1l.1-.1h.1c0-.1.1-.1.1-.1.1 0 .1-.1.1-.1.1 0 .1-.1.2-.1 0 0 0-.1.1-.1l.1-.1.1-.1c.1 0 .1-.1.1-.1.1 0 .1-.1.2-.1 0-.1 0-.1.1-.1 0-.1.1-.1.1-.2l.1-.1c.1-.1.1-.1.1-.2.1 0 .1-.1.2-.1 0-.1 0-.1.1-.2 0-.1.1-.1.1-.2s.1-.1.1-.2c.1-.1.1-.2.1-.2.1-.1.1-.2.2-.3 0-.1 0-.2.1-.3 0-.2.1-.3.1-.4 0-.3.1-.5.1-.7 0-.2.1-.5.1-.8 0-.2-.1-.5-.1-.7 0-.3-.1-.5-.1-.7 0-.1-.1-.2-.1-.3-.1-.2-.1-.3-.1-.4-.1 0-.1-.1-.2-.2 0-.1 0-.2-.1-.2 0-.1-.1-.2-.1-.2 0-.1-.1-.2-.1-.2-.1-.1-.1-.1-.1-.2l-.2-.2s0-.1-.1-.1c0-.1-.1-.1-.1-.1 0-.1-.1-.1-.1-.2-.1 0-.1 0-.1-.1-.1 0-.1-.1-.2-.1 0 0 0-.1-.1-.1l-.1-.1-.1-.1c-.1 0-.1-.1-.1-.1-.1 0-.1-.1-.2-.1l-.1-.1s-.1 0-.1-.1h-.1l-.1-.1c-.1 0-.1-.1-.2-.1h-.1c0-.1-.1-.1-.1-.1s-.1 0-.1-.1h-.1c-.1 0-.1-.1-.2-.1h-.1c0-.1-.1-.1-.1-.1h-.1l-.1-.1h-.2c0-.1 0-.1-.1-.1h-.1l-.1-.1H841.2l-.1-.1h-.1-.1c-.1 0-.1-.1-.1-.1h-.2-.1s-.1 0-.1-.1h-.4-.1l-.1-.1h-.7l-.1-.1h-.2v-.1H839.1c0-.1.1-.1.1-.1h.4s0-.1.1-.1h.2c.1 0 .1-.1.1-.1H840.3l.1-.1h.1c.1 0 .1 0 .1-.1h.2l.1-.1h.1s.1 0 .1-.1h.1c.1 0 .1-.1.2-.1h.1c0-.1.1-.1.1-.1s.1 0 .1-.1h.1c.1-.1.1-.1.2-.1 0 0 0-.1.1-.1l.1-.1s.1 0 .1-.1c.1 0 .1 0 .1-.1.1 0 .1 0 .2-.1l.1-.1s.1 0 .1-.1c0 0 .1 0 .1-.1.1 0 .1-.1.1-.1.1 0 .1-.1.2-.1 0-.1 0-.1.1-.2l.1-.1c0-.1.1-.1.1-.2.1 0 .1-.1.1-.2.1 0 .1-.1.2-.1 0-.1 0-.2.1-.3 0 0 .1-.1.1-.2s.1-.2.1-.3c.1-.1.1-.2.1-.3.1-.1.1-.3.2-.4 0-.3 0-.5.1-.7v-.6-.6c-.1-.3-.1-.5-.1-.7-.1-.2-.1-.3-.2-.5 0-.1 0-.2-.1-.3 0-.1-.1-.2-.1-.3 0 0-.1-.1-.1-.2-.1-.1-.1-.1-.1-.2l-.2-.2s0-.1-.1-.2l-.1-.1c0-.1-.1-.1-.1-.2-.1 0-.1 0-.1-.1-.1 0-.1-.1-.2-.1 0 0 0-.1-.1-.1 0-.1-.1-.1-.1-.1 0-.1-.1-.1-.1-.1l-.1-.1c-.1-.1-.1-.1-.2-.1 0-.1 0-.1-.1-.1 0-.1-.1-.1-.1-.1l-.1-.1c-.1 0-.1 0-.1-.1h-.2c0-.1 0-.1-.1-.1l-.1-.1h-.1l-.1-.1c-.1 0-.1 0-.2-.1h-.1s-.1 0-.1-.1h-.1c-.1 0-.1 0-.1-.1h-.2-.1c0-.1-.1-.1-.1-.1h-.1c-.1 0-.1-.1-.1-.1h-.2-.1l-.1-.1h-.2c-.1 0-.1 0-.2-.1h-.1-.1-.2c-.1-.1-.1-.1-.2-.1H838.2l-.1-.1h-19.3V25.5c0-.9.1-1.7.2-2.6.1-.1.1-.3.2-.5 0-.1 0-.3.1-.4 0-.2.1-.3.1-.4 0-.1.1-.2.1-.4.1-.1.1-.2.1-.3.1-.1.1-.2.2-.3 0-.1 0-.2.1-.2 0-.1.1-.2.1-.3 0-.1.1-.2.1-.2.1-.1.1-.2.1-.3.1 0 .1-.1.2-.2 0-.1 0-.1.1-.2 0-.1.1-.1.1-.2s.1-.1.1-.2c.1-.1.1-.1.1-.2.1 0 .1-.1.2-.2 0 0 0-.1.1-.1 0-.1.1-.1.1-.2 0 0 .1-.1.1-.2.1 0 .1-.1.1-.1l.2-.2s0-.1.1-.1l.1-.1c0-.1.1-.1.1-.2.1 0 .1-.1.1-.1.1-.1.1-.1.2-.1 0-.1 0-.1.1-.2 0 0 .1 0 .1-.1l.1-.1c.1 0 .1-.1.1-.1.1-.1.1-.1.2-.1 0-.1 0-.1.1-.1 0-.1.1-.1.1-.2 0 0 .1 0 .1-.1.1 0 .1 0 .1-.1.1 0 .1 0 .2-.1l.1-.1h.1l.1-.1.1-.1c.1-.1.1-.1.2-.1l.1-.1.1-.1.1-.1h.1c.1-.1.1-.1.2-.1l.1-.1s.1 0 .1-.1h.1l.1-.1c.1 0 .1-.1.2-.1h.1c0-.1.1-.1.1-.1l.1-.1h.1c.1-.1.1-.1.2-.1h.1c0-.1.1-.1.1-.1s.1 0 .1-.1h.1c.1 0 .1 0 .2-.1h.1s.1 0 .1-.1h.1l.1-.1H827.1c0-.1.1-.1.1-.1h.1l.1-.1H827.7c0-.1.1-.1.1-.1h.2l.2-.1h.2s.1 0 .1-.1h.4s.1 0 .1-.1h.6l.1-.1h19.7z" fill="#479951"/><path d="M750.5 56.3c-.1-.1-.2-.1-.3-.2V25.5c0-.9.1-1.7.3-2.6 0-.1 0-.3.1-.5 0-.1.1-.3.1-.4 0-.1.1-.3.1-.4.1-.1.1-.2.1-.4.1-.1.1-.2.2-.3 0-.1 0-.2.1-.3 0-.1.1-.1.1-.2s.1-.2.1-.3c.1-.1.1-.2.1-.2.1-.1.1-.2.2-.3 0 0 0-.1.1-.2 0-.1.1-.1.1-.2s.1-.1.1-.2c.1-.1.1-.1.1-.2.1 0 .1-.1.2-.2 0 0 0-.1.1-.1 0-.1.1-.2.1-.2 0-.1.1-.1.1-.2.1 0 .1-.1.1-.1l.2-.2s0-.1.1-.1c0-.1 0-.1.1-.2l.1-.1c0-.1.1-.1.1-.2.1 0 .1-.1.1-.1.1 0 .1-.1.2-.1 0-.1 0-.1.1-.2 0 0 .1 0 .1-.1l.1-.1c.1 0 .1-.1.1-.1.1-.1.1-.1.2-.1 0-.1 0-.1.1-.1 0-.1.1-.1.1-.1 0-.1.1-.1.1-.1.1-.1.1-.1.1-.2h.2c0-.1 0-.1.1-.1 0-.1.1-.1.1-.1 0-.1.1-.1.1-.1l.1-.1.2-.1s0-.1.1-.1c0 0 .1 0 .1-.1 0 0 .1 0 .1-.1h.1c.1-.1.1-.1.2-.1 0 0 0-.1.1-.1 0 0 .1 0 .1-.1h.1l.1-.1c.1 0 .1 0 .2-.1h.1c0-.1.1-.1.1-.1s.1 0 .1-.1h.1l.2-.1h.1c0-.1.1-.1.1-.1s.1 0 .1-.1h.1c.1 0 .1 0 .2-.1h.1l.1-.1h.1l.1-.1H758.5c0-.1.1-.1.1-.1h.1l.1-.1H759.1l.1-.1h.2c.1 0 .1-.1.2-.1h.2s.1 0 .1-.1h.5c0-.1.1-.1.1-.1h.5l.1-.1h19.7v62c0 .6 0 1.1-.1 1.6 0 .3 0 .5-.1.8 0 .2 0 .3-.1.5 0 .2-.1.3-.1.5-.1.1-.1.3-.1.4-.1.1-.1.2-.2.3 0 .2 0 .3-.1.4 0 .1-.1.2-.1.3 0 .1-.1.2-.1.2-.1.1-.1.2-.1.3-.1.1-.1.2-.2.3 0 0 0 .1-.1.2 0 .1 0 .1-.1.2 0 .1-.1.2-.1.2 0 .1-.1.2-.1.2-.1.1-.1.2-.1.2l-.2.2c0 .1 0 .1-.1.2 0 0-.1.1-.1.2l-.1.1c-.1.1-.1.1-.1.2-.1 0-.1.1-.2.1 0 .1 0 .1-.1.2l-.1.1c0 .1-.1.1-.1.2-.1 0-.1.1-.1.1l-.2.2-.1.1-.1.1c0 .1-.1.1-.1.1-.1.1-.1.1-.1.2-.1 0-.1 0-.2.1 0 0 0 .1-.1.1l-.1.1-.1.1c-.1 0-.1.1-.1.1-.1 0-.1.1-.2.1 0 0 0 .1-.1.1l-.1.1-.1.1c-.1 0-.1.1-.1.1-.1 0-.1.1-.2.1l-.1.1s-.1 0-.1.1h-.1l-.1.1c-.1.1-.1.1-.2.1 0 0 0 .1-.1.1 0 0-.1 0-.1.1h-.1l-.1.1c-.1 0-.1.1-.2.1h-.1c0 .1-.1.1-.1.1l-.1.1h-.1c-.1.1-.1.1-.2.1l-.1.1h-.1l-.1.1h-.1c-.1.1-.1.1-.2.1h-.1l-.1.1h-.1l-.1.1h-.2s0 .1-.1.1h-.1l-.1.1H772.2c0 .1 0 .1-.1.1h-.1l-.1.1H771.6l-.1.1h-.1-.2l-.2.1h-.1-.1-.1l-.1.1H770.3h-.2-.1l-.1.1h-.2-.2-.5-.1-.4-18.3V61.4h.3l.1.1h.2l.1.1h.4l.1.1h.4l.1.1h.4l.1.1H752.7l.2.1H753.2l.1.1h.5l.1.1h.5l.1.1h.6l.1.1h.6l.2.1H756.7l.1.1H757.6l.2.1h.9l.1.1h1.5l.1.1h4.9l.1-.1h1.2l.1-.1h.8l.1-.1h.6l.1-.1h.5s.1 0 .1-.1h.5l.1-.1h.2l.2-.1H770.2c.1 0 .1-.1.1-.1H770.6s0-.1.1-.1h.2c.1 0 .1-.1.1-.1H771.3c0-.1.1-.1.1-.1h.1l.1-.1H771.9l.1-.1h.1c.1 0 .1-.1.1-.1h.2l.1-.1h.1l.1-.1h.1l.2-.1h.1c0-.1.1-.1.1-.1s.1 0 .1-.1h.1c.1 0 .1-.1.2-.1h.1c0-.1.1-.1.1-.1s.1 0 .1-.1h.1c.1-.1.1-.1.2-.1 0 0 0-.1.1-.1 0 0 .1 0 .1-.1h.1l.1-.1c.1-.1.1-.1.2-.1 0 0 0-.1.1-.1l.1-.1s.1 0 .1-.1c.1 0 .1 0 .1-.1.1 0 .1 0 .2-.1l.1-.1.1-.1.1-.1c.1 0 .1-.1.1-.1.1-.1.1-.1.2-.1 0-.1 0-.1.1-.2 0 0 .1 0 .1-.1l.1-.1c.1-.1.1-.1.1-.2.1 0 .1-.1.2-.1 0-.1 0-.1.1-.2 0 0 .1-.1.1-.2l.1-.1c.1-.1.1-.2.1-.2.1-.1.1-.2.2-.2 0-.1 0-.2.1-.3 0 0 .1-.1.1-.2s.1-.2.1-.3c.1 0 .1-.1.1-.2.1-.1.1-.3.2-.4 0-.1 0-.2.1-.3 0-.2.1-.3.1-.5s.1-.4.1-.5c.1-.3.1-.6.1-.9.1-.4.1-.8.1-1.2V38.4h-10.7v15c0 .3-.1.6-.1.8-.1.2-.1.4-.2.5 0 .1 0 .3-.1.4 0 .1-.1.2-.1.3 0 .1-.1.2-.1.3-.1 0-.1.1-.1.2l-.2.2c0 .1 0 .1-.1.2 0 0-.1.1-.1.2l-.1.1c-.1.1-.1.1-.1.2-.1 0-.1.1-.2.1 0 0 0 .1-.1.1 0 .1-.1.1-.1.1 0 .1-.1.1-.1.2-.1 0-.1 0-.1.1-.1 0-.1 0-.2.1l-.1.1s-.1 0-.1.1h-.1l-.1.1c-.1 0-.1.1-.2.1l-.1.1h-.1c0 .1-.1.1-.1.1-.1 0-.1 0-.1.1h-.2s0 .1-.1.1h-.1l-.1.1h-.1c-.1 0-.1.1-.2.1h-.1-.1c0 .1-.1.1-.1.1h-.1c-.1 0-.1 0-.2.1h-.1-.1-.1c-.1 0-.1.1-.1.1h-.2-.2-.1c-.1 0-.1 0-.1.1H761.8h-.1-.1-.5H759.4l-.1-.1H758.5l-.1-.1h-.5l-.1-.1h-.5l-.1-.1h-.4l-.1-.1h-.4l-.1-.1h-.2l-.2-.1h-.2l-.1-.1H755.2l-.1-.1h-.2l-.1-.1H754.5l-.1-.1h-.2l-.2-.1h-.1l-.1-.1h-.1l-.1-.1H753.3l-.1-.1h-.1l-.1-.1h-.1l-.2-.1h-.1l-.1-.1h-.1l-.1-.1h-.2l-.1-.1h-.1l-.1-.1h-.1l-.2-.1h-.1l-.1-.1h-.1l-.1-.1h-.2l-.1-.1h-.1l-.1-.1h-.1z" fill="#265797"/><path d="M785.2 41.5c0 .1-.1.1-.2.2V25.5c0-.9.1-1.7.2-2.6.1-.1.1-.3.2-.5 0-.1 0-.3.1-.4 0-.1.1-.3.1-.4 0-.1.1-.2.1-.3.1-.2.1-.3.1-.4.1-.1.1-.2.2-.3 0-.1 0-.1.1-.2 0-.1.1-.2.1-.3 0-.1.1-.2.1-.2.1-.1.1-.2.1-.3.1 0 .1-.1.2-.2 0-.1 0-.1.1-.2 0-.1.1-.1.1-.2s.1-.1.1-.2c.1 0 .1-.1.1-.2.1 0 .1-.1.2-.1 0-.1 0-.2.1-.2 0-.1.1-.1.1-.2l.1-.1c.1-.1.1-.1.1-.2.1 0 .1-.1.2-.1 0-.1 0-.1.1-.2l.1-.1c0-.1.1-.1.1-.2.1 0 .1-.1.1-.1.1 0 .1-.1.2-.1 0-.1 0-.1.1-.2 0 0 .1 0 .1-.1l.1-.1c.1 0 .1-.1.1-.1.1-.1.1-.1.2-.1 0-.1 0-.1.1-.1 0-.1.1-.1.1-.1 0-.1.1-.1.1-.1l.1-.1c.1-.1.1-.1.2-.1 0-.1 0-.1.1-.1 0-.1.1-.1.1-.1 0-.1.1-.1.1-.1l.1-.1c.1-.1.1-.1.2-.1 0 0 0-.1.1-.1 0 0 .1 0 .1-.1 0 0 .1 0 .1-.1h.1c.1-.1.1-.1.2-.1 0 0 0-.1.1-.1 0 0 .1 0 .1-.1h.1l.1-.1c.1 0 .1 0 .2-.1h.1c0-.1.1-.1.1-.1s.1 0 .1-.1h.1l.2-.1h.1c0-.1.1-.1.1-.1s.1 0 .1-.1h.1c.1 0 .1 0 .2-.1h.1l.1-.1h.1c.1 0 .1 0 .1-.1H793.3c0-.1 0-.1.1-.1h.1l.1-.1H793.9s0-.1.1-.1h.2c.1 0 .1-.1.1-.1H794.6s.1 0 .1-.1h.5l.1-.1h.5l.1-.1h19.7v62c0 .6 0 1.1-.1 1.6 0 .3 0 .5-.1.8 0 .2-.1.3-.1.5s-.1.3-.1.5c-.1.1-.1.3-.1.4-.1.1-.1.2-.2.3 0 .2 0 .3-.1.4 0 .1-.1.2-.1.3 0 .1-.1.2-.1.2-.1.1-.1.2-.1.3-.1.1-.1.2-.2.3 0 0 0 .1-.1.2 0 .1-.1.1-.1.2s-.1.2-.1.2c-.1.1-.1.2-.1.2-.1.1-.1.2-.2.2 0 .1 0 .1-.1.2 0 .1-.1.1-.1.2 0 0-.1.1-.1.2-.1 0-.1.1-.1.1l-.2.2s0 .1-.1.1c0 .1-.1.1-.1.2l-.1.1c-.1.1-.1.1-.1.2-.1 0-.1.1-.2.1 0 .1 0 .1-.1.2 0 0-.1 0-.1.1l-.1.1-.1.1-.2.2-.1.1-.1.1-.1.1c-.1 0-.1.1-.1.1-.1 0-.1.1-.2.1 0 0 0 .1-.1.1l-.1.1-.1.1c-.1 0-.1.1-.1.1-.1 0-.1.1-.1.1-.1 0-.1.1-.2.1 0 0-.1 0-.1.1 0 0-.1 0-.1.1h-.1l-.1.1c-.1.1-.1.1-.2.1 0 0 0 .1-.1.1 0 0-.1 0-.1.1h-.1l-.1.1c-.1 0-.1.1-.2.1h-.1l-.1.1-.1.1h-.1c-.1.1-.1.1-.2.1l-.1.1h-.1l-.1.1h-.1c-.1.1-.1.1-.2.1h-.1l-.1.1h-.1l-.1.1h-.2s0 .1-.1.1h-.1l-.1.1H807c0 .1 0 .1-.1.1h-.1l-.1.1H806.4l-.1.1h-.1-.2l-.2.1h-.1-.2l-.1.1h-.2-.1H804.8c-.1.1-.1.1-.2.1h-.1-.7-.5H785V58.9c.1 0 .2.1.2.2.1 0 .1.1.2.1l.1.1s.1 0 .1.1c0 0 .1 0 .1.1h.1c.1.1.1.1.2.1l.1.1.1.1.1.1h.1c.1.1.1.1.2.1l.1.1s.1 0 .1.1h.1l.1.1.2.1h.1c0 .1.1.1.1.1s.1 0 .1.1h.1l.2.1h.1c0 .1.1.1.1.1h.1l.1.1.2.1h.1l.1.1h.1l.1.1h.2l.1.1h.2l.1.1h.2s0 .1.1.1h.1l.1.1H790.2l.1.1h.2l.1.1H790.9l.1.1h.2l.2.1h.2l.1.1h.4l.1.1h.2l.2.1h.4l.2.1H793.5l.1.1h.6l.1.1h.6l.2.1h.8l.1.1h1.2l.1.1H802.6l.1-.1h1.3l.2-.1h.8l.1-.1h.7l.2-.1H806.6l.1-.1h.6l.1-.1h.5l.1-.1h.5l.1-.1h.4l.1-.1h.5l.1-.1H810l.2-.1H810.5l.1-.1h.4l.1-.1h.4l.1-.1h.2l.1-.1H812.2v-5.3l-.1.1h-.2l-.1.1-.1.1h-.1l-.1.1h-.2l-.1.1h-.1l-.1.1-.1.1h-.1l-.2.1h-.1l-.1.1h-.1l-.1.1h-.2l-.1.1h-.1l-.1.1h-.1l-.2.1h-.2l-.1.1h-.1l-.2.1h-.1l-.1.1h-.2l-.2.1h-.1l-.1.1h-.2l-.2.1h-.2l-.1.1H807l-.1.1h-.2l-.1.1h-.4l-.1.1H805.8l-.1.1h-.5l-.1.1h-.5l-.1.1h-.5l-.1.1H803.1l-.1.1H801.5 800.9h-.1-.6-.1s-.1 0-.1-.1h-.7c-.1 0-.1-.1-.2-.1h-.1-.1-.1c-.1 0-.1 0-.1-.1h-.2-.2l-.1-.1H797.9l-.1-.1h-.1-.1c-.1 0-.1-.1-.1-.1h-.2l-.1-.1h-.1-.1l-.1-.1h-.2c0-.1 0-.1-.1-.1 0 0-.1 0-.1-.1h-.1c-.1 0-.1 0-.1-.1h-.2c0-.1 0-.1-.1-.1 0 0-.1 0-.1-.1h-.1l-.1-.1c-.1 0-.1-.1-.2-.1l-.1-.1h-.1c0-.1-.1-.1-.1-.1l-.1-.1c-.1 0-.1-.1-.2-.1 0 0 0-.1-.1-.1l-.1-.1-.1-.1c-.1 0-.1-.1-.1-.1-.1 0-.1-.1-.2-.1 0-.1 0-.1-.1-.1 0-.1-.1-.1-.1-.2l-.1-.1c-.1 0-.1-.1-.1-.1l-.2-.2s0-.1-.1-.1c0-.1-.1-.2-.1-.2 0-.1-.1-.1-.1-.2-.1 0-.1-.1-.1-.2-.1 0-.1-.1-.2-.2 0 0 0-.1-.1-.2 0-.1-.1-.1-.1-.2s-.1-.2-.1-.3c-.1-.1-.1-.2-.1-.3-.1-.1-.1-.2-.1-.3-.1-.1-.1-.2-.2-.3 0-.2-.1-.3-.1-.5s-.1-.4-.1-.5c-.1-.3-.1-.6-.1-.9-.1-.4-.1-.7-.1-1.1 0-.4 0-.7.1-1.1 0-.3 0-.6.1-.9 0-.1.1-.3.1-.5s.1-.3.1-.5c.1-.1.1-.2.2-.3 0-.1 0-.2.1-.3 0-.1 0-.2.1-.3 0-.1.1-.2.1-.3 0-.1.1-.1.1-.2.1-.1.1-.2.1-.2.1-.1.1-.2.2-.2 0-.1 0-.2.1-.2 0-.1.1-.1.1-.2s.1-.1.1-.2c.1 0 .1-.1.1-.1l.2-.2s0-.1.1-.1l.1-.1c0-.1.1-.1.1-.2.1 0 .1 0 .1-.1.1 0 .1-.1.2-.1 0 0 0-.1.1-.1l.1-.1.1-.1c.1 0 .1-.1.1-.1.1 0 .1-.1.2-.1 0 0 0-.1.1-.1 0 0 .1 0 .1-.1 0 0 .1 0 .1-.1h.1c.1-.1.1-.1.2-.1 0 0 0-.1.1-.1h.1c0-.1.1-.1.1-.1.1 0 .1-.1.1-.1h.2c0-.1 0-.1.1-.1 0 0 .1 0 .1-.1h.1c.1 0 .1 0 .1-.1h.2l.1-.1h.2l.1-.1h.2s0-.1.1-.1h.2l.1-.1H798.2c0-.1.1-.1.1-.1h.2c.1 0 .1 0 .2-.1h.4c.1-.1.1-.1.2-.1H799.9l.1-.1H803l.1.1H803.9l.1.1h.6l.2.1h.4l.2.1H805.7l.1.1h.4l.1.1H806.6l.1.1h.2l.1.1H807.3l.1.1h.2l.2.1h.2l.1.1H808.4l.1.1h.1l.1.1h.1l.2.1h.2l.1.1h.1l.2.1h.1l.1.1h.1l.1.1h.2l.1.1h.1l.1.1h.1l.2.1h.1l.1.1h.1l.1.1.1.1h.2l.1.1h.1l.1.1h.1l.2.1.1.1v-5.3H811.9l-.1-.1h-.2l-.1-.1h-.4l-.1-.1h-.4l-.1-.1H810.2l-.2-.1H809.7l-.1-.1h-.5l-.1-.1h-.4l-.1-.1h-.5l-.1-.1h-.5l-.1-.1h-.6l-.1-.1h-.6l-.2-.1H805.1l-.1-.1H804.2l-.2-.1h-1.2l-.1-.1H797.3l-.1.1H796l-.1.1H795.1l-.2.1H794.3l-.1.1h-.6l-.1.1H793.2l-.2.1H792.7l-.3.1H792.1l-.1.1H791.7l-.1.1h-.2l-.2.1h-.2l-.1.1H790.6l-.1.1h-.2l-.1.1H789.9c0 .1-.1.1-.1.1h-.1l-.1.1h-.2l-.1.1h-.1-.1l-.1.1h-.2l-.1.1h-.1l-.1.1h-.1l-.2.1-.1.1h-.1s-.1 0-.1.1h-.1l-.2.1h-.1c0 .1-.1.1-.1.1s-.1 0-.1.1h-.1l-.2.1-.1.1h-.1c0 .1-.1.1-.1.1-.1 0-.1.1-.1.1-.1 0-.1 0-.2.1h-.1l-.1.1-.1.1-.1.1c-.1 0-.1 0-.2.1h-.1c0 .1-.1.1-.1.1 0 .1-.1.1-.1.1l-.1.1c-.1 0-.1.1-.2.1z" fill="#CA4638"/><path d="M1048-.1H908c-4 0-8 4-8 8v80c0 8 4 12 12 12h136c8 0 12-4 12-12v-76c0-8-4-12-12-12z" fill="#F6F6F6"/><path d="M1051.8 33.4h-4.2c-1 0-2 .7-2.3 1.6v.1l-.3 1.2-5.7 25.5c-.2.5-.3.9-.3 1-.2.9.4 1.7 1.3 1.7v.1h4.4c.9 0 1.9-.7 2.1-1.6.1-.1.1-.1.1-.2l6.3-27.7c.2-1-.4-1.7-1.4-1.7zm-21.6 25l-1.8.9c-.9.3-1.7.5-2.5.5-1.1 0-2-.1-2.6-.5-.6-.3-1-.9-1-1.7 0-.9.3-1.6.7-2.2.5-.6 1.2-1 2-1.3.9-.3 1.9-.5 3.1-.7 1.1-.1 3.2-.4 3.5-.4.3 0 .4-.1.3.6 0 .3-.7 2.7-.9 3.8-.1.4-.6.9-.8 1 0 0 .2-.1 0 0zm8.3-17.2c-1.8-1-4.5-1.4-8.4-1.4-1.8 0-3.7.1-5.6.4-1.4.2-1.6.2-2.5.4-1.7.4-2 2.1-2 2.1l-.6 2.3c-.3 1.5.6 1.4.9 1.3.8-.2 1.2-.4 2.8-.8 1.5-.3 3.1-.6 4.4-.6 1.9 0 3.3.2 4.3.6.9.4 1.4 1.1 1.4 2.1 0 .2 0 .5-.1.6 0 .2-.2.4-.6.5-2.7.1-4.7.4-7 .7-2.3.3-4.3.8-5.9 1.6-1.8.7-3.1 1.8-4.1 3.1-.9 1.3-1.3 2.9-1.3 4.8 0 1.7.6 3.2 1.9 4.3 1.3 1.1 2.9 1.6 4.9 1.6 1.3 0 2.3-.1 3-.2.7-.2 1.5-.4 2.3-.8.6-.2 1.2-.6 1.9-1 .7-.5 1.1-.8 1.8-1.2v.1l-.2.7c-.2.9.4 1.7 1.3 1.7v.1h4.3c.1 0 .1-.1.1-.1.9-.1 1.8-.8 2-1.7l3.4-14.4c.1-.3.2-.7.2-1.2.1-.4.1-.8.1-1.1 0-2-.9-3.5-2.7-4.5zm-20.6-3.3c-.6-1.1-1.5-2-2.6-2.7-1.1-.7-2.5-1.1-4.1-1.4-1.5-.3-3.4-.4-5.5-.4h-9.8c-1 0-2 .8-2.3 1.7l-6.6 28c-.2.9.4 1.7 1.4 1.7h4.8c1 0 2-.8 2.2-1.7l1.6-6.8c.2-1 1.2-1.8 2.3-1.7h1.3c5.7 0 10.2-1.2 13.4-3.5 3.2-2.3 4.8-5.3 4.8-9.1 0-1.6-.3-3-.9-4.1zm-10.1 9.2c-1.5 1-3.4 1.5-6 1.5h-1.1c-1.1 0-1.7-.8-1.5-1.8l1.4-5.9c.3-.9 1.3-1.7 2.3-1.7h1.5c1.8 0 3.2.3 4.1.8.9.6 1.4 1.6 1.4 2.8 0 1.8-.7 3.3-2.1 4.3" fill="#306FC5"/><path d="M984.8 39.8c-.9 0-2 .7-2.6 1.5 0 0-6 10.1-6.6 11.1-.3.5-.6.2-.7 0 0-.3-1.8-11-1.8-11-.2-.9-1.1-1.6-2.3-1.6h-3.7c-.9 0-1.5.7-1.3 1.5 0 0 2.9 15.9 3.4 19.6.3 2.1 0 2.4 0 2.4l-3.7 6.3c-.5.9-.2 1.6.7 1.6h4.3c.9 0 2.1-.7 2.6-1.6l16.6-27.5s1.6-2.4.1-2.3h-5zm-31.2 18.6l-1.8.9c-.9.3-1.7.5-2.5.5-1.1 0-2-.1-2.6-.5-.7-.3-1-.9-1-1.7 0-.9.3-1.6.7-2.2.5-.6 1.2-1 2-1.3.9-.3 1.9-.5 3.1-.7 1.1-.1 3.2-.4 3.5-.4.2 0 .4-.1.3.6 0 .3-.7 2.7-.9 3.8-.1.4-.6.9-.8 1 0 0 .2-.1 0 0zm8.3-17.2c-1.8-1-4.5-1.4-8.4-1.4-1.9 0-3.7.1-5.7.4-1.3.2-1.5.2-2.4.4-1.7.4-2 2.1-2 2.1l-.6 2.3c-.3 1.5.5 1.4.9 1.3.8-.2 1.2-.4 2.8-.8 1.5-.3 3.1-.6 4.4-.6 1.9 0 3.3.2 4.3.6.9.4 1.4 1.1 1.4 2.1 0 .2 0 .5-.1.6-.1.2-.2.4-.7.5-2.6.1-4.6.4-6.9.7-2.3.3-4.3.8-5.9 1.6-1.8.7-3.2 1.8-4.1 3.1-.9 1.3-1.3 2.9-1.3 4.8 0 1.7.6 3.2 1.9 4.3 1.3 1.1 2.9 1.6 4.9 1.6 1.3 0 2.3-.1 3-.2.7-.2 1.4-.4 2.2-.8.7-.2 1.3-.6 2-1 .7-.5 1.1-.8 1.8-1.2v.1l-.2.7c-.2.9.3 1.7 1.3 1.7v.1h4.3c.1 0 .1-.1.1-.1.9-.1 1.8-.8 2-1.7l3.4-14.4c.1-.3.2-.7.2-1.2.1-.4.1-.8.1-1.1 0-2-.9-3.5-2.7-4.5zm-21.4-3.3c-.6-1.1-1.5-2-2.6-2.7-1.2-.7-2.5-1.1-4.1-1.4-1.5-.3-3.4-.4-5.5-.4h-9.8c-1 0-2 .8-2.3 1.7l-6.6 28c-.2.9.4 1.7 1.4 1.7h4.7c1 0 2.1-.8 2.3-1.7l1.6-6.8c.2-1 1.2-1.8 2.2-1.7h1.4c5.7 0 10.2-1.2 13.4-3.5 3.2-2.3 4.8-5.3 4.8-9.1 0-1.6-.3-3-.9-4.1zm-10.2 9.2c-1.4 1-3.3 1.5-5.9 1.5h-1.1c-1.1 0-1.7-.8-1.5-1.8l1.4-5.9c.2-.9 1.3-1.7 2.3-1.7h1.5c1.8 0 3.2.3 4.1.8.9.6 1.4 1.6 1.4 2.8 0 1.8-.7 3.3-2.2 4.3" fill="#265697"/></svg>